<?xml version="1.0" encoding="utf-8"?>
<!-- Generator: Adobe Illustrator 15.0.0, SVG Export Plug-In . SVG Version: 6.00 Build 0)  -->
<!DOCTYPE svg PUBLIC "-//W3C//DTD SVG 1.1//EN" "http://www.w3.org/Graphics/SVG/1.1/DTD/svg11.dtd">
<svg version="1.1" id="Layer_1" xmlns="http://www.w3.org/2000/svg" xmlns:xlink="http://www.w3.org/1999/xlink" x="0px" y="0px"
	 width="100px" height="100px" viewBox="0 0 100 100" style="enable-background:new 0 0 100 100;" xml:space="preserve">
<style type="text/css">
<![CDATA[
	.st0{fill:none;}
	.st1{fill:#DFCF51;}
]]>
</style>
<path id="circle" class="st1" d="M50,0C22.385,0,0,22.385,0,50c0,27.614,22.385,50,50,50c27.614,0,50-22.386,50-50
	C100,22.385,77.614,0,50,0z M56.454,13.875c0-3.627,4.963-3.565,4.89-0.113l0.073,30.91c-1.825-0.51-3.362-0.64-4.963-0.75V13.875z
	 M46.999,8.819c0-3.627,4.962-3.566,4.89-0.114l0.072,35.326c-1.643-0.258-2.796-0.38-4.962-0.113V8.819z M37.753,11.237
	c0-3.627,4.962-3.565,4.891-0.113l0.072,32.893c-1.896-0.011-2.899,0.194-4.962,0.898V11.237z M28.949,20.689
	c0-3.627,4.963-3.565,4.891-0.113l0.072,25.522c-1.896-0.01-3.394,0.557-4.963,1.968V20.689z M40.234,71.014
	c0,3.023,0,10.387,0,10.387c0,5.384-8.598,7.549-11.285-0.33c-2.173-6.375-1.896-8.05-2.064-10.881
	c-0.761-12.83,0.854-19.784,13.604-21.623c2.323-0.335,13.412-0.5,16.528-0.5c5.95,0,8.371,1.79,5.829,7.944
	c-1.802,4.366-5.521,2.735-6.392,2.748C42.208,58.978,40.234,67.344,40.234,71.014z M64.924,86.566
	c-6.855,3.844-21.315,3.627-20.868-8.134c0.187-4.895,0.979-15.057,12.398-15.057c1.911,0,5.684,0.912,7.491,1.539
	c3.275,1.137,4.347,3.408,7.717-1.539c2.258-3.314,8.451-10.695,12.39-10.111c4.456,0.659,2.141,4.672,1.548,5.781
	C80.465,68.651,75.9,80.411,64.924,86.566z"/>
<g id="hand">
	<path class="st0" d="M61.306,13.755c0.072-3.453-4.893-3.515-4.893,0.113v30.055c1.601,0.109,3.14,0.241,4.965,0.75L61.306,13.755z
		"/>
	<path class="st0" d="M51.917,44.033L51.845,8.698c0.072-3.453-4.894-3.515-4.894,0.114v35.109
		C49.119,43.654,50.272,43.775,51.917,44.033z"/>
	<path class="st0" d="M42.594,11.117c0.072-3.453-4.894-3.515-4.894,0.113v33.688c2.065-0.705,3.068-0.909,4.966-0.899
		L42.594,11.117z"/>
	<path class="st0" d="M33.786,20.572c0.072-3.453-4.894-3.515-4.894,0.113V48.07c1.57-1.412,3.069-1.979,4.966-1.968L33.786,20.572z
		"/>
	<path class="st0" d="M56.977,48.07c-3.119,0-14.213,0.166-16.538,0.501c-12.758,1.839-14.374,8.794-13.613,21.628
		c0.169,2.832-0.107,4.507,2.066,10.884c2.689,7.881,11.292,5.715,11.292,0.33c0,0,0-7.366,0-10.39
		c0-3.671,1.975-12.039,16.229-12.258c0.872-0.014,4.592,1.618,6.396-2.749C65.352,49.861,62.93,48.07,56.977,48.07z"/>
	<path class="st0" d="M84.026,53.269c-3.941-0.583-10.138,6.799-12.397,10.115c-3.372,4.948-4.444,2.676-7.72,1.539
		c-1.81-0.627-5.584-1.539-7.496-1.539c-11.425,0-12.219,10.166-12.405,15.062c-0.447,11.764,14.021,11.981,20.88,8.136
		c10.983-6.157,15.55-17.92,20.687-27.529C86.167,57.942,88.484,53.928,84.026,53.269z"/>
</g>
</svg>
