<?xml version="1.0" encoding="utf-8"?>
<!-- Generator: Adobe Illustrator 15.0.0, SVG Export Plug-In . SVG Version: 6.00 Build 0)  -->
<!DOCTYPE svg PUBLIC "-//W3C//DTD SVG 1.1//EN" "http://www.w3.org/Graphics/SVG/1.1/DTD/svg11.dtd">
<svg version="1.1" id="Layer_1" xmlns="http://www.w3.org/2000/svg" xmlns:xlink="http://www.w3.org/1999/xlink" x="0px" y="0px"
	 width="100px" height="100px" viewBox="0 0 100 100" style="enable-background:new 0 0 100 100;" xml:space="preserve">
<style type="text/css">
<![CDATA[
	.st0{fill:#DFCF51;}
]]>
</style>
<path class="st0" d="M50,0C22.385,0,0,22.385,0,50c0,27.614,22.385,50,50,50c27.614,0,50-22.386,50-50C100,22.385,77.614,0,50,0z
	 M56.454,13.875c0-3.627,4.963-3.565,4.89-0.113l0.073,30.91c-1.825-0.51-3.362-0.64-4.963-0.75V13.875z M46.999,8.819
	c0-3.627,4.962-3.566,4.89-0.114l0.072,35.326c-1.643-0.258-2.796-0.38-4.962-0.113V8.819z M37.753,11.237
	c0-3.627,4.962-3.565,4.891-0.113l0.072,32.893c-1.896-0.011-2.899,0.194-4.962,0.898V11.237z M28.949,20.689
	c0-3.627,4.963-3.565,4.891-0.113l0.072,25.522c-1.896-0.01-3.394,0.557-4.963,1.968V20.689z M40.234,71.014
	c0,3.023,0,10.387,0,10.387c0,5.384-8.598,7.549-11.285-0.33c-2.173-6.375-1.896-8.05-2.064-10.881
	c-0.761-12.83,0.854-19.784,13.604-21.623c2.323-0.335,13.412-0.5,16.528-0.5c5.95,0,8.371,1.79,5.829,7.944
	c-1.802,4.366-5.521,2.735-6.392,2.748C42.208,58.978,40.234,67.344,40.234,71.014z M64.924,86.566
	c-6.855,3.844-21.315,3.627-20.868-8.134c0.187-4.895,0.979-15.057,12.398-15.057c1.911,0,5.684,0.912,7.491,1.539
	c3.275,1.137,4.347,3.408,7.717-1.539c2.258-3.314,8.451-10.695,12.39-10.111c4.456,0.659,2.141,4.672,1.548,5.781
	C80.465,68.651,75.9,80.411,64.924,86.566z"/>
</svg>
